<?xml version="1.0" standalone="no"?>
<!DOCTYPE svg PUBLIC "-//W3C//DTD SVG 20010904//EN"
 "http://www.w3.org/TR/2001/REC-SVG-20010904/DTD/svg10.dtd">
<svg version="1.0" xmlns="http://www.w3.org/2000/svg"
 width="124.000000pt" height="131.000000pt" viewBox="0 0 124.000000 131.000000"
 preserveAspectRatio="xMidYMid meet">
<metadata>
Created by potrace 1.15, written by Peter Selinger 2001-2017
</metadata>
<g transform="translate(0.000000,131.000000) scale(0.100000,-0.100000)"
fill="#000000" stroke="none">
<path d="M0 655 l0 -655 613 0 614 0 6 197 c4 108 7 402 7 655 l0 458 -620 0
-620 0 0 -655z m611 249 c33 -35 35 -138 3 -181 -27 -37 -82 -43 -109 -13 -20
22 -32 111 -21 155 16 64 83 85 127 39z m41 -469 l3 -66 -90 3 c-75 3 -90 6
-93 20 -2 10 8 23 25 33 15 9 19 14 9 10 -11 -3 -22 -1 -26 5 -4 6 -15 -7 -25
-30 -10 -22 -21 -40 -26 -40 -4 0 -19 20 -32 45 l-26 45 29 0 c21 0 28 -4 24
-14 -3 -8 -1 -17 5 -21 10 -6 16 7 12 28 -1 4 22 7 51 5 51 -3 53 -4 56 -33 2
-16 8 -34 14 -40 7 -7 9 3 5 33 -4 36 -3 42 14 42 16 0 19 -7 19 -40 0 -23 5
-40 11 -40 8 0 10 20 7 60 -4 52 -2 60 13 60 14 0 18 -11 21 -65z m128 45 c0
-15 7 -20 24 -20 28 0 41 -27 31 -61 -5 -16 -4 -19 5 -14 8 5 11 26 8 61 -4
46 -2 54 13 54 14 0 18 -11 21 -64 l3 -65 -110 2 c-94 2 -110 4 -113 19 -2 10
8 23 25 32 l28 16 -29 -6 c-22 -5 -28 -4 -24 7 2 8 19 15 36 17 27 3 32 0 38
-25 11 -51 14 -49 11 10 -3 50 -1 57 15 57 11 0 18 -7 18 -20z"/>
</g>
</svg>
